<svg data-v-6805eed4="" version="1.0" xmlns="http://www.w3.org/2000/svg" xmlns:xlink="http://www.w3.org/1999/xlink"
  width="100%" height="100%" viewBox="0 0 340.000000 250.000000" preserveAspectRatio="xMidYMid meet"
  color-interpolation-filters="sRGB" style="margin: auto;">
  <rect data-v-6805eed4="" x="0" y="0" width="100%" height="100%" fill="#ffffff" fill-opacity="1" class="background">
  </rect>
  <rect data-v-6805eed4="" x="0" y="0" width="100%" height="100%" fill="url(#watermark)" fill-opacity="1"
    class="watermarklayer"></rect>
  <g data-v-6805eed4="" fill="#070707" class="iconlinesvg-g iconlinesvg"
    transform="translate(90.1500015258789,89.63199234008789)">
    <g class="tp-name" transform="translate(0,0)">
      <g transform="translate(0, 0)">
        <g data-gra="path-name" fill="#070707" transform="scale(1)">
          <path
            d="M8.16-25.20L8.16-31.26L4.50-31.26L4.50 12.78L8.58 12.78L8.58-6.48C10.82-2.80 14.78 0.60 20.46 0.60C22.54 0.60 24.45 0.17 26.19-0.69C31.12-3.12 34.62-8.35 34.62-15.60C34.62-20.26 32.74-24.21 30.42-26.85C28.07-29.52 24.55-31.80 19.80-31.80C14.46-31.80 10.40-28.63 8.16-25.20ZM19.32-3C18.16-3 17.04-3.20 15.96-3.60C12.53-4.87 10.00-7.55 8.58-10.86L8.58-20.46C8.74-21.50 9.17-22.49 9.87-23.43C11.62-25.78 14.91-28.20 18.84-28.20C20.48-28.20 22.01-27.86 23.43-27.18C27.32-25.32 30.48-21.23 30.48-15.60C30.48-14.00 30.22-12.45 29.70-10.95C28.26-6.80 24.81-3 19.32-3Z"
            transform="translate(-4.5, 43.8)"></path>
        </g>
      </g>
      <g transform="translate(34, 0)">
        <g data-gra="path-name" fill="#070707" transform="scale(1)">
          <path
            d="M20.10-27.66L20.10-31.38C19.90-31.42 19.64-31.44 19.32-31.44C14.00-31.44 10.25-27.72 8.34-23.76L8.34-31.26L4.50-31.26L4.50 0L8.58 0L8.58-19.44C10.14-24.13 14.23-27.49 20.10-27.66Z"
            transform="translate(-4.5, 43.8)"></path>
        </g>
      </g>
      <g transform="translate(53, 8.852721219029338)">
        <g>
          <g class="imagesvg">
            <g>
              <rect fill="#070707" fill-opacity="0" stroke-width="2" x="0" y="0" width="38.879999999999995"
                height="38.87455756194132" class="image-rect"></rect> <svg x="0" y="0" width="38.879999999999995"
                height="38.87455756194132" filtersec="colorsb9940373335" class="image-svg-svg primary"
                style="overflow: visible;"><svg xmlns="http://www.w3.org/2000/svg"
                  viewBox="1.23699951171875 1.2519999742507935 97.51799774169922 97.50406646728516">
                  <g fill="#070707">
                    <path
                      d="M98.217 56.19H77.641a.517.517 0 0 0-.503.4C74.75 66.697 66.684 74.77 56.576 77.144a.517.517 0 0 0-.4.503v20.576a.526.526 0 0 0 .524.524c.02 0 .041 0 .069-.006 21.797-2.912 39.054-20.17 41.966-41.973a.54.54 0 0 0-.124-.414.553.553 0 0 0-.394-.166z">
                    </path>
                    <path
                      d="M50.228 22.538c12.882 0 23.95 8.784 26.903 21.362a.51.51 0 0 0 .503.394H98.21c.007.007.021 0 .028 0 .29 0 .517-.235.517-.518a.61.61 0 0 0-.048-.228C95.402 19.426 74.592 1.252 50.227 1.252c-27.013 0-48.99 21.977-48.99 48.997 0 24.42 18.251 45.264 42.45 48.5.027 0 .048.007.068.007a.502.502 0 0 0 .345-.13.522.522 0 0 0 .173-.394V77.655a.517.517 0 0 0-.4-.504c-12.579-2.96-21.363-14.02-21.363-26.903.007-15.283 12.441-27.71 27.718-27.71z">
                    </path>
                  </g>
                </svg></svg>
              <!---->
            </g>
          </g>
        </g>
      </g>
      <g transform="translate(95, 0)">
        <g data-gra="path-name" fill="#070707" transform="scale(1)">
          <path
            d="M19.50-1.50L18.42-4.80C17.51-4.19 15.45-3.42 13.68-3.42C11.54-3.42 10.05-4.66 9.90-6.78L9.90-28.02L17.10-28.02L17.10-31.26L9.90-31.26L9.90-41.82L5.82-41.82L5.82-31.26L1.50-31.26L1.50-28.02L5.82-28.02L5.82-5.64C5.82-1.75 8.55 0.36 12.42 0.36C15.24 0.36 17.64-0.57 19.50-1.50Z"
            transform="translate(-1.5, 43.8)"></path>
        </g>
      </g>
      <g transform="translate(117, 0)">
        <g data-gra="path-name" fill="#070707" transform="scale(1)">
          <path
            d="M24.84-5.22L24.96-2.76C25.04-0.87 26.31 0.18 28.32 0.18C28.68 0.18 29.20 0.12 29.88 0L29.88-3.60C28.88-3.60 28.38-4.16 28.38-5.28L28.38-19.38C28.38-27.15 23.57-31.80 15.78-31.80C11.98-31.80 8.06-30.44 4.02-27.72L5.46-25.02C8.22-26.94 11.43-28.74 15.48-28.74C20.99-28.74 24.30-25.24 24.30-19.74L24.30-16.92C21.91-17.89 18.36-18.54 15.06-18.54C13.14-18.54 11.38-18.31 9.78-17.85C5.81-16.71 1.98-14.05 1.98-9.12C1.98-7.76 2.24-6.49 2.76-5.31C4.24-1.96 7.59 0.60 12.36 0.60C17.96 0.60 22.27-1.86 24.84-5.22ZM15.60-15.96C18.91-15.96 21.79-15.30 24.30-14.34L24.30-9.24C24.30-8.28 23.78-7.46 23.22-6.90C21.44-4.35 17.62-2.52 13.32-2.52C9.16-2.52 5.88-5.26 5.88-9.42C5.88-13.92 10.72-15.96 15.60-15.96Z"
            transform="translate(-1.98, 43.8)"></path>
        </g>
      </g>
      <g transform="translate(148, 0)">
        <g data-gra="path-name" fill="#070707" transform="scale(1)">
          <path
            d="M10.74 0.36C12.49 0.36 15.10-0.18 16.38-0.72L15.66-4.02C14.82-3.70 13.48-3.36 12.42-3.36C10.10-3.36 8.76-4.77 8.76-7.08L8.76-43.80L4.68-43.80L4.68-5.70C4.68-1.90 6.96 0.36 10.74 0.36Z"
            transform="translate(-4.68, 43.8)"></path>
        </g>
      </g>
    </g>
    <g data-gra="path-slogan" fill-rule="" class="tp-slogan" fill="#070707" transform="translate(5,62.57999801635742)">
      <rect x="0" height="1" y="3.580000400543213" width="25.119998931884766"></rect>
      <rect height="1" y="3.580000400543213" width="25.119998931884766" x="124.57999801635742"></rect>
      <g transform="translate(28.119998931884766,0)">
        <g transform="scale(1)">
          <path
            d="M1.08-7.87L1.08 0L2.00 0L2.00-4.33C2.00-4.68 1.99-5.07 1.96-5.50C1.92-5.92 1.90-6.31 1.87-6.66L1.92-6.66L2.54-4.91L4.07-0.79L4.63-0.79L6.14-4.91L6.78-6.66L6.83-6.66C6.80-6.31 6.77-5.92 6.74-5.50C6.71-5.07 6.70-4.68 6.70-4.33L6.70 0L7.64 0L7.64-7.87L6.47-7.87L4.96-3.65L4.40-2.04L4.36-2.04L3.78-3.65L2.26-7.87ZM13.15-3.20L10.79-3.20L11.16-4.40C11.30-4.84 11.44-5.28 11.57-5.72C11.70-6.15 11.82-6.60 11.94-7.06L11.99-7.06C12.12-6.60 12.24-6.15 12.37-5.72C12.50-5.28 12.64-4.84 12.78-4.40ZM13.40-2.40L14.15 0L15.22 0L12.55-7.87L11.42-7.87L8.76 0L9.78 0L10.54-2.40ZM16.33-7.87L16.33 0L17.33 0L17.33-2.50L18.68-4.09L21.04 0L22.15 0L19.31-4.87L21.77-7.87L20.64-7.87L17.36-3.92L17.33-3.92L17.33-7.87ZM23.28-7.87L23.28 0L27.94 0L27.94-0.85L24.28-0.85L24.28-3.71L27.26-3.71L27.26-4.56L24.28-4.56L24.28-7.03L27.82-7.03L27.82-7.87ZM32.03-7.87L32.03 0L36.47 0L36.47-0.85L33.02-0.85L33.02-7.87ZM37.86-7.87L37.86 0L38.86 0L38.86-7.87ZM41.02-7.87L41.02 0L41.96 0L41.96-4.12C41.96-4.53 41.95-4.95 41.92-5.36C41.89-5.77 41.86-6.18 41.83-6.58L41.88-6.58L42.73-4.96L45.59 0L46.62 0L46.62-7.87L45.67-7.87L45.67-3.80C45.67-3.39 45.69-2.97 45.71-2.54C45.74-2.11 45.77-1.70 45.79-1.30L45.74-1.30L44.89-2.93L42.05-7.87ZM48.78-7.87L48.78 0L49.78 0L49.78-2.50L51.13-4.09L53.48 0L54.60 0L51.76-4.87L54.22-7.87L53.09-7.87L49.81-3.92L49.78-3.92L49.78-7.87ZM58.15-7.87L58.15 0L59.15 0L59.15-3.53L62.15-3.53L62.15-4.37L59.15-4.37L59.15-7.03L62.69-7.03L62.69-7.87ZM66.98-3.20L64.62-3.20L64.99-4.40C65.14-4.84 65.27-5.28 65.40-5.72C65.53-6.15 65.65-6.60 65.77-7.06L65.82-7.06C65.95-6.60 66.08-6.15 66.20-5.72C66.33-5.28 66.47-4.84 66.61-4.40ZM67.24-2.40L67.98 0L69.05 0L66.38-7.87L65.26-7.87L62.59 0L63.61 0L64.37-2.40ZM70.19-1.72L69.59-1.02C69.93-0.66 70.34-0.38 70.81-0.17C71.28 0.04 71.80 0.14 72.35 0.14C72.76 0.14 73.14 0.09 73.46-0.03C73.79-0.15 74.07-0.31 74.30-0.51C74.54-0.71 74.71-0.95 74.84-1.22C74.96-1.50 75.02-1.79 75.02-2.10C75.02-2.39 74.98-2.64 74.90-2.86C74.81-3.08 74.70-3.27 74.56-3.44C74.41-3.60 74.24-3.75 74.04-3.87C73.84-3.99 73.63-4.10 73.40-4.20L72.29-4.68C72.13-4.74 71.97-4.81 71.82-4.89C71.67-4.97 71.53-5.05 71.40-5.15C71.27-5.25 71.17-5.37 71.09-5.50C71.02-5.63 70.98-5.80 70.98-5.99C70.98-6.35 71.11-6.63 71.38-6.83C71.65-7.04 72.00-7.14 72.44-7.14C72.81-7.14 73.14-7.07 73.43-6.94C73.73-6.81 73.99-6.63 74.23-6.40L74.77-7.04C74.49-7.33 74.15-7.57 73.75-7.75C73.35-7.93 72.92-8.02 72.44-8.02C72.08-8.02 71.75-7.96 71.45-7.86C71.15-7.76 70.89-7.61 70.67-7.42C70.45-7.23 70.28-7.01 70.16-6.76C70.03-6.50 69.97-6.22 69.97-5.93C69.97-5.64 70.02-5.39 70.12-5.17C70.21-4.95 70.34-4.76 70.49-4.60C70.64-4.44 70.81-4.30 71.00-4.19C71.20-4.08 71.38-3.98 71.57-3.90L72.70-3.41C72.88-3.32 73.05-3.24 73.21-3.16C73.37-3.08 73.51-2.99 73.63-2.89C73.74-2.79 73.83-2.67 73.90-2.53C73.97-2.39 74.00-2.22 74.00-2.02C74.00-1.63 73.86-1.32 73.57-1.09C73.28-0.85 72.88-0.73 72.36-0.73C71.95-0.73 71.56-0.82 71.18-1.00C70.80-1.18 70.47-1.42 70.19-1.72ZM77.96-7.03L77.96 0L78.97 0L78.97-7.03L81.35-7.03L81.35-7.87L75.59-7.87L75.59-7.03ZM82.76-7.87L82.76 0L87.42 0L87.42-0.85L83.76-0.85L83.76-3.71L86.75-3.71L86.75-4.56L83.76-4.56L83.76-7.03L87.30-7.03L87.30-7.87ZM90.08-4.14L90.08-7.07L91.40-7.07C92.02-7.07 92.49-6.96 92.82-6.76C93.15-6.55 93.31-6.18 93.31-5.66C93.31-5.15 93.15-4.77 92.82-4.52C92.49-4.27 92.02-4.14 91.40-4.14ZM93.41 0L94.54 0L92.54-3.43C93.08-3.57 93.51-3.82 93.83-4.19C94.15-4.56 94.31-5.05 94.31-5.66C94.31-6.07 94.24-6.42 94.10-6.70C93.97-6.98 93.78-7.20 93.53-7.38C93.29-7.56 93.00-7.68 92.66-7.76C92.32-7.83 91.95-7.87 91.55-7.87L89.09-7.87L89.09 0L90.08 0L90.08-3.32L91.51-3.32Z"
            transform="translate(-1.08, 8.016)"></path>
        </g>
      </g>
    </g>
  </g>
  <defs v-gra="od"></defs>
</svg>